<mxfile host="Electron" modified="2023-12-04T12:14:04.707Z" agent="Mozilla/5.0 (Windows NT 10.0; Win64; x64) AppleWebKit/537.36 (KHTML, like Gecko) draw.io/21.6.5 Chrome/114.0.5735.243 Electron/25.3.1 Safari/537.36" etag="u50hlvPiys7bu3g06cO8" version="21.6.5" type="device">
  <diagram name="Page-1" id="wjSl2jKwSkH-KG0pPpFf">
    <mxGraphModel dx="1404" dy="814" grid="1" gridSize="8" guides="0" tooltips="1" connect="1" arrows="0" fold="1" page="1" pageScale="1" pageWidth="2560" pageHeight="1440" math="0" shadow="0">
      <root>
        <mxCell id="0" />
        <mxCell id="1" parent="0" />
        <mxCell id="gHWjX6nv2yNhoL-KbP3H-1" value="ds_fifo" style="rounded=0;whiteSpace=wrap;html=1;verticalAlign=top;fontStyle=4" parent="1" vertex="1">
          <mxGeometry x="64" y="160" width="128" height="160" as="geometry" />
        </mxCell>
        <mxCell id="l6OGeaEmu5MbRwiX80PM-1" value="&lt;i&gt;if_wr&lt;/i&gt;" style="rounded=1;whiteSpace=wrap;html=1;verticalAlign=top;fillColor=#E6E6E6;" parent="1" vertex="1">
          <mxGeometry x="64" y="352" width="64" height="160" as="geometry" />
        </mxCell>
        <mxCell id="l6OGeaEmu5MbRwiX80PM-2" value="vld" style="text;html=1;strokeColor=none;fillColor=none;align=right;verticalAlign=middle;whiteSpace=wrap;rounded=0;" parent="1" vertex="1">
          <mxGeometry x="80" y="384" width="48" height="16" as="geometry" />
        </mxCell>
        <mxCell id="l6OGeaEmu5MbRwiX80PM-3" value="data" style="text;html=1;strokeColor=none;fillColor=none;align=right;verticalAlign=middle;whiteSpace=wrap;rounded=0;" parent="1" vertex="1">
          <mxGeometry x="80" y="480" width="48" height="16" as="geometry" />
        </mxCell>
        <mxCell id="l6OGeaEmu5MbRwiX80PM-4" value="" style="rounded=1;whiteSpace=wrap;html=1;" parent="1" vertex="1">
          <mxGeometry x="64" y="384" width="16" height="16" as="geometry" />
        </mxCell>
        <mxCell id="l6OGeaEmu5MbRwiX80PM-5" style="edgeStyle=orthogonalEdgeStyle;rounded=0;orthogonalLoop=1;jettySize=auto;html=1;exitX=0;exitY=0.5;exitDx=0;exitDy=0;entryX=1;entryY=0.5;entryDx=0;entryDy=0;" parent="1" source="l6OGeaEmu5MbRwiX80PM-4" target="l6OGeaEmu5MbRwiX80PM-4" edge="1">
          <mxGeometry relative="1" as="geometry" />
        </mxCell>
        <mxCell id="l6OGeaEmu5MbRwiX80PM-6" value="rdy" style="text;html=1;strokeColor=none;fillColor=none;align=right;verticalAlign=middle;whiteSpace=wrap;rounded=0;" parent="1" vertex="1">
          <mxGeometry x="80" y="416" width="48" height="16" as="geometry" />
        </mxCell>
        <mxCell id="l6OGeaEmu5MbRwiX80PM-7" value="" style="rounded=1;whiteSpace=wrap;html=1;" parent="1" vertex="1">
          <mxGeometry x="64" y="416" width="16" height="16" as="geometry" />
        </mxCell>
        <mxCell id="l6OGeaEmu5MbRwiX80PM-8" style="edgeStyle=orthogonalEdgeStyle;rounded=0;orthogonalLoop=1;jettySize=auto;html=1;exitX=0;exitY=0.5;exitDx=0;exitDy=0;entryX=1;entryY=0.5;entryDx=0;entryDy=0;" parent="1" source="l6OGeaEmu5MbRwiX80PM-7" target="l6OGeaEmu5MbRwiX80PM-7" edge="1">
          <mxGeometry relative="1" as="geometry" />
        </mxCell>
        <mxCell id="l6OGeaEmu5MbRwiX80PM-9" value="xfer" style="text;html=1;strokeColor=none;fillColor=none;align=right;verticalAlign=middle;whiteSpace=wrap;rounded=0;" parent="1" vertex="1">
          <mxGeometry x="80" y="448" width="48" height="16" as="geometry" />
        </mxCell>
        <mxCell id="l6OGeaEmu5MbRwiX80PM-10" value="" style="rounded=1;whiteSpace=wrap;html=1;" parent="1" vertex="1">
          <mxGeometry x="64" y="480" width="16" height="16" as="geometry" />
        </mxCell>
        <mxCell id="l6OGeaEmu5MbRwiX80PM-11" style="edgeStyle=orthogonalEdgeStyle;rounded=0;orthogonalLoop=1;jettySize=auto;html=1;exitX=0;exitY=0.5;exitDx=0;exitDy=0;entryX=1;entryY=0.5;entryDx=0;entryDy=0;" parent="1" source="l6OGeaEmu5MbRwiX80PM-10" target="l6OGeaEmu5MbRwiX80PM-10" edge="1">
          <mxGeometry relative="1" as="geometry" />
        </mxCell>
        <mxCell id="l6OGeaEmu5MbRwiX80PM-12" value="&lt;i&gt;if_wr_lvl&lt;/i&gt;" style="rounded=1;whiteSpace=wrap;html=1;verticalAlign=top;fillColor=#E6E6E6;" parent="1" vertex="1">
          <mxGeometry x="64" y="544" width="64" height="160" as="geometry" />
        </mxCell>
        <mxCell id="l6OGeaEmu5MbRwiX80PM-13" value="lim" style="text;html=1;strokeColor=none;fillColor=none;align=right;verticalAlign=middle;whiteSpace=wrap;rounded=0;" parent="1" vertex="1">
          <mxGeometry x="80" y="576" width="48" height="16" as="geometry" />
        </mxCell>
        <mxCell id="l6OGeaEmu5MbRwiX80PM-14" value="lvl_gte" style="text;html=1;strokeColor=none;fillColor=none;align=right;verticalAlign=middle;whiteSpace=wrap;rounded=0;" parent="1" vertex="1">
          <mxGeometry x="80" y="672" width="48" height="16" as="geometry" />
        </mxCell>
        <mxCell id="l6OGeaEmu5MbRwiX80PM-15" value="" style="rounded=1;whiteSpace=wrap;html=1;" parent="1" vertex="1">
          <mxGeometry x="64" y="576" width="16" height="16" as="geometry" />
        </mxCell>
        <mxCell id="l6OGeaEmu5MbRwiX80PM-16" style="edgeStyle=orthogonalEdgeStyle;rounded=0;orthogonalLoop=1;jettySize=auto;html=1;exitX=1;exitY=0.5;exitDx=0;exitDy=0;entryX=0;entryY=0.5;entryDx=0;entryDy=0;" parent="1" source="l6OGeaEmu5MbRwiX80PM-15" target="l6OGeaEmu5MbRwiX80PM-15" edge="1">
          <mxGeometry relative="1" as="geometry" />
        </mxCell>
        <mxCell id="l6OGeaEmu5MbRwiX80PM-17" value="lvl" style="text;html=1;strokeColor=none;fillColor=none;align=right;verticalAlign=middle;whiteSpace=wrap;rounded=0;" parent="1" vertex="1">
          <mxGeometry x="80" y="608" width="48" height="16" as="geometry" />
        </mxCell>
        <mxCell id="l6OGeaEmu5MbRwiX80PM-18" value="" style="rounded=1;whiteSpace=wrap;html=1;" parent="1" vertex="1">
          <mxGeometry x="64" y="608" width="16" height="16" as="geometry" />
        </mxCell>
        <mxCell id="l6OGeaEmu5MbRwiX80PM-19" style="edgeStyle=orthogonalEdgeStyle;rounded=0;orthogonalLoop=1;jettySize=auto;html=1;exitX=1;exitY=0.5;exitDx=0;exitDy=0;entryX=0;entryY=0.5;entryDx=0;entryDy=0;" parent="1" source="l6OGeaEmu5MbRwiX80PM-18" target="l6OGeaEmu5MbRwiX80PM-18" edge="1">
          <mxGeometry relative="1" as="geometry" />
        </mxCell>
        <mxCell id="l6OGeaEmu5MbRwiX80PM-20" value="lvl_thr" style="text;html=1;strokeColor=none;fillColor=none;align=right;verticalAlign=middle;whiteSpace=wrap;rounded=0;" parent="1" vertex="1">
          <mxGeometry x="80" y="640" width="48" height="16" as="geometry" />
        </mxCell>
        <mxCell id="l6OGeaEmu5MbRwiX80PM-21" value="" style="rounded=1;whiteSpace=wrap;html=1;" parent="1" vertex="1">
          <mxGeometry x="64" y="672" width="16" height="16" as="geometry" />
        </mxCell>
        <mxCell id="l6OGeaEmu5MbRwiX80PM-22" style="edgeStyle=orthogonalEdgeStyle;rounded=0;orthogonalLoop=1;jettySize=auto;html=1;exitX=1;exitY=0.5;exitDx=0;exitDy=0;entryX=0;entryY=0.5;entryDx=0;entryDy=0;" parent="1" source="l6OGeaEmu5MbRwiX80PM-21" target="l6OGeaEmu5MbRwiX80PM-21" edge="1">
          <mxGeometry relative="1" as="geometry" />
        </mxCell>
        <mxCell id="l6OGeaEmu5MbRwiX80PM-23" value="" style="rounded=1;whiteSpace=wrap;html=1;" parent="1" vertex="1">
          <mxGeometry x="64" y="640" width="16" height="16" as="geometry" />
        </mxCell>
        <mxCell id="l6OGeaEmu5MbRwiX80PM-24" style="edgeStyle=orthogonalEdgeStyle;rounded=0;orthogonalLoop=1;jettySize=auto;html=1;exitX=0;exitY=0.5;exitDx=0;exitDy=0;entryX=1;entryY=0.5;entryDx=0;entryDy=0;" parent="1" source="l6OGeaEmu5MbRwiX80PM-23" target="l6OGeaEmu5MbRwiX80PM-23" edge="1">
          <mxGeometry relative="1" as="geometry" />
        </mxCell>
        <mxCell id="l6OGeaEmu5MbRwiX80PM-26" value="&lt;i&gt;Level&lt;/i&gt;" style="rounded=0;whiteSpace=wrap;html=1;verticalAlign=top;" parent="1" vertex="1">
          <mxGeometry x="320" y="512" width="176" height="192" as="geometry" />
        </mxCell>
        <mxCell id="l6OGeaEmu5MbRwiX80PM-27" value="" style="rounded=1;whiteSpace=wrap;html=1;fillColor=#FFFFFF;" parent="1" vertex="1">
          <mxGeometry x="320" y="576" width="16" height="16" as="geometry" />
        </mxCell>
        <mxCell id="l6OGeaEmu5MbRwiX80PM-28" style="edgeStyle=orthogonalEdgeStyle;rounded=0;orthogonalLoop=1;jettySize=auto;html=1;exitX=1;exitY=0.5;exitDx=0;exitDy=0;entryX=0;entryY=0.5;entryDx=0;entryDy=0;startArrow=none;startFill=0;startSize=3;endSize=3;" parent="1" source="l6OGeaEmu5MbRwiX80PM-27" target="l6OGeaEmu5MbRwiX80PM-27" edge="1">
          <mxGeometry relative="1" as="geometry" />
        </mxCell>
        <mxCell id="l6OGeaEmu5MbRwiX80PM-29" value="" style="rounded=1;whiteSpace=wrap;html=1;fillColor=#FFFFFF;" parent="1" vertex="1">
          <mxGeometry x="320" y="672" width="16" height="16" as="geometry" />
        </mxCell>
        <mxCell id="l6OGeaEmu5MbRwiX80PM-30" style="edgeStyle=orthogonalEdgeStyle;rounded=0;orthogonalLoop=1;jettySize=auto;html=1;exitX=1;exitY=0.5;exitDx=0;exitDy=0;entryX=0;entryY=0.5;entryDx=0;entryDy=0;startArrow=none;startFill=0;startSize=3;endSize=3;" parent="1" source="l6OGeaEmu5MbRwiX80PM-29" target="l6OGeaEmu5MbRwiX80PM-29" edge="1">
          <mxGeometry relative="1" as="geometry" />
        </mxCell>
        <mxCell id="l6OGeaEmu5MbRwiX80PM-31" value="q_full" style="text;html=1;strokeColor=none;fillColor=none;align=left;verticalAlign=middle;whiteSpace=wrap;rounded=0;fontSize=8;" parent="1" vertex="1">
          <mxGeometry x="336" y="576" width="48" height="16" as="geometry" />
        </mxCell>
        <mxCell id="l6OGeaEmu5MbRwiX80PM-32" value="q_ewc_gte" style="text;html=1;strokeColor=none;fillColor=none;align=left;verticalAlign=middle;whiteSpace=wrap;rounded=0;fontSize=8;" parent="1" vertex="1">
          <mxGeometry x="336" y="672" width="48" height="16" as="geometry" />
        </mxCell>
        <mxCell id="l6OGeaEmu5MbRwiX80PM-33" value="" style="rounded=1;whiteSpace=wrap;html=1;fillColor=#FFFFFF;" parent="1" vertex="1">
          <mxGeometry x="480" y="576" width="16" height="16" as="geometry" />
        </mxCell>
        <mxCell id="l6OGeaEmu5MbRwiX80PM-34" style="edgeStyle=orthogonalEdgeStyle;rounded=0;orthogonalLoop=1;jettySize=auto;html=1;exitX=0;exitY=0.5;exitDx=0;exitDy=0;entryX=1;entryY=0.5;entryDx=0;entryDy=0;startArrow=none;startFill=0;startSize=3;endSize=3;" parent="1" source="l6OGeaEmu5MbRwiX80PM-33" target="l6OGeaEmu5MbRwiX80PM-33" edge="1">
          <mxGeometry relative="1" as="geometry" />
        </mxCell>
        <mxCell id="l6OGeaEmu5MbRwiX80PM-35" value="&lt;span style=&quot;text-align: left;&quot;&gt;q_empty&lt;/span&gt;" style="text;html=1;strokeColor=none;fillColor=none;align=right;verticalAlign=middle;whiteSpace=wrap;rounded=0;fontSize=8;" parent="1" vertex="1">
          <mxGeometry x="432" y="576" width="48" height="16" as="geometry" />
        </mxCell>
        <mxCell id="l6OGeaEmu5MbRwiX80PM-36" value="" style="rounded=1;whiteSpace=wrap;html=1;fillColor=#FFFFFF;" parent="1" vertex="1">
          <mxGeometry x="320" y="608" width="16" height="16" as="geometry" />
        </mxCell>
        <mxCell id="l6OGeaEmu5MbRwiX80PM-37" style="edgeStyle=orthogonalEdgeStyle;rounded=0;orthogonalLoop=1;jettySize=auto;html=1;exitX=1;exitY=0.5;exitDx=0;exitDy=0;entryX=0;entryY=0.5;entryDx=0;entryDy=0;startArrow=none;startFill=0;startSize=3;endSize=3;" parent="1" source="l6OGeaEmu5MbRwiX80PM-36" target="l6OGeaEmu5MbRwiX80PM-36" edge="1">
          <mxGeometry relative="1" as="geometry" />
        </mxCell>
        <mxCell id="l6OGeaEmu5MbRwiX80PM-38" value="q_ewc" style="text;html=1;strokeColor=none;fillColor=none;align=left;verticalAlign=middle;whiteSpace=wrap;rounded=0;fontSize=8;" parent="1" vertex="1">
          <mxGeometry x="336" y="608" width="48" height="16" as="geometry" />
        </mxCell>
        <mxCell id="l6OGeaEmu5MbRwiX80PM-39" value="" style="rounded=1;whiteSpace=wrap;html=1;fillColor=#FFFFFF;" parent="1" vertex="1">
          <mxGeometry x="320" y="640" width="16" height="16" as="geometry" />
        </mxCell>
        <mxCell id="l6OGeaEmu5MbRwiX80PM-40" style="edgeStyle=orthogonalEdgeStyle;rounded=0;orthogonalLoop=1;jettySize=auto;html=1;exitX=0;exitY=0.5;exitDx=0;exitDy=0;entryX=1;entryY=0.5;entryDx=0;entryDy=0;startArrow=none;startFill=0;startSize=3;endSize=3;" parent="1" source="l6OGeaEmu5MbRwiX80PM-39" target="l6OGeaEmu5MbRwiX80PM-39" edge="1">
          <mxGeometry relative="1" as="geometry" />
        </mxCell>
        <mxCell id="l6OGeaEmu5MbRwiX80PM-41" value="ewc_thr" style="text;html=1;strokeColor=none;fillColor=none;align=left;verticalAlign=middle;whiteSpace=wrap;rounded=0;fontSize=8;" parent="1" vertex="1">
          <mxGeometry x="336" y="640" width="48" height="16" as="geometry" />
        </mxCell>
        <mxCell id="l6OGeaEmu5MbRwiX80PM-42" value="" style="rounded=1;whiteSpace=wrap;html=1;fillColor=#FFFFFF;" parent="1" vertex="1">
          <mxGeometry x="480" y="608" width="16" height="16" as="geometry" />
        </mxCell>
        <mxCell id="l6OGeaEmu5MbRwiX80PM-43" style="edgeStyle=orthogonalEdgeStyle;rounded=0;orthogonalLoop=1;jettySize=auto;html=1;exitX=0;exitY=0.5;exitDx=0;exitDy=0;entryX=1;entryY=0.5;entryDx=0;entryDy=0;startArrow=none;startFill=0;startSize=3;endSize=3;" parent="1" source="l6OGeaEmu5MbRwiX80PM-42" target="l6OGeaEmu5MbRwiX80PM-42" edge="1">
          <mxGeometry relative="1" as="geometry" />
        </mxCell>
        <mxCell id="l6OGeaEmu5MbRwiX80PM-44" value="&lt;span style=&quot;text-align: left;&quot;&gt;q_wc&lt;/span&gt;" style="text;html=1;strokeColor=none;fillColor=none;align=right;verticalAlign=middle;whiteSpace=wrap;rounded=0;fontSize=8;" parent="1" vertex="1">
          <mxGeometry x="432" y="608" width="48" height="16" as="geometry" />
        </mxCell>
        <mxCell id="l6OGeaEmu5MbRwiX80PM-45" value="" style="rounded=1;whiteSpace=wrap;html=1;fillColor=#FFFFFF;" parent="1" vertex="1">
          <mxGeometry x="480" y="640" width="16" height="16" as="geometry" />
        </mxCell>
        <mxCell id="l6OGeaEmu5MbRwiX80PM-46" style="edgeStyle=orthogonalEdgeStyle;rounded=0;orthogonalLoop=1;jettySize=auto;html=1;exitX=1;exitY=0.5;exitDx=0;exitDy=0;entryX=0;entryY=0.5;entryDx=0;entryDy=0;startArrow=none;startFill=0;startSize=3;endSize=3;" parent="1" source="l6OGeaEmu5MbRwiX80PM-45" target="l6OGeaEmu5MbRwiX80PM-45" edge="1">
          <mxGeometry relative="1" as="geometry" />
        </mxCell>
        <mxCell id="l6OGeaEmu5MbRwiX80PM-47" value="&lt;span style=&quot;text-align: left;&quot;&gt;wc_thr&lt;/span&gt;" style="text;html=1;strokeColor=none;fillColor=none;align=right;verticalAlign=middle;whiteSpace=wrap;rounded=0;fontSize=8;" parent="1" vertex="1">
          <mxGeometry x="432" y="640" width="48" height="16" as="geometry" />
        </mxCell>
        <mxCell id="l6OGeaEmu5MbRwiX80PM-48" value="" style="rounded=1;whiteSpace=wrap;html=1;fillColor=#FFFFFF;" parent="1" vertex="1">
          <mxGeometry x="480" y="672" width="16" height="16" as="geometry" />
        </mxCell>
        <mxCell id="l6OGeaEmu5MbRwiX80PM-49" style="edgeStyle=orthogonalEdgeStyle;rounded=0;orthogonalLoop=1;jettySize=auto;html=1;exitX=0;exitY=0.5;exitDx=0;exitDy=0;entryX=1;entryY=0.5;entryDx=0;entryDy=0;startArrow=none;startFill=0;startSize=3;endSize=3;" parent="1" source="l6OGeaEmu5MbRwiX80PM-48" target="l6OGeaEmu5MbRwiX80PM-48" edge="1">
          <mxGeometry relative="1" as="geometry" />
        </mxCell>
        <mxCell id="l6OGeaEmu5MbRwiX80PM-50" value="&lt;span style=&quot;text-align: left;&quot;&gt;q_wc_gte&lt;/span&gt;" style="text;html=1;strokeColor=none;fillColor=none;align=right;verticalAlign=middle;whiteSpace=wrap;rounded=0;fontSize=8;" parent="1" vertex="1">
          <mxGeometry x="432" y="672" width="48" height="16" as="geometry" />
        </mxCell>
        <mxCell id="l6OGeaEmu5MbRwiX80PM-51" value="&lt;i&gt;Handshake&lt;/i&gt;" style="rounded=0;whiteSpace=wrap;html=1;verticalAlign=top;" parent="1" vertex="1">
          <mxGeometry x="320" y="352" width="176" height="96" as="geometry" />
        </mxCell>
        <mxCell id="l6OGeaEmu5MbRwiX80PM-52" value="&lt;i&gt;Data Path&lt;/i&gt;" style="rounded=0;whiteSpace=wrap;html=1;verticalAlign=top;" parent="1" vertex="1">
          <mxGeometry x="320" width="176" height="192" as="geometry" />
        </mxCell>
      </root>
    </mxGraphModel>
  </diagram>
</mxfile>
